<?xml version="1.0" encoding="UTF-8" standalone="no"?>
<!-- Created with Inkscape (http://www.inkscape.org/) -->
<svg
   xmlns:dc="http://purl.org/dc/elements/1.1/"
   xmlns:cc="http://creativecommons.org/ns#"
   xmlns:rdf="http://www.w3.org/1999/02/22-rdf-syntax-ns#"
   xmlns:svg="http://www.w3.org/2000/svg"
   xmlns="http://www.w3.org/2000/svg"
   xmlns:sodipodi="http://sodipodi.sourceforge.net/DTD/sodipodi-0.dtd"
   xmlns:inkscape="http://www.inkscape.org/namespaces/inkscape"
   version="1.0"
   width="200"
   height="500"
   id="svg2387"
   style="display:inline"
   sodipodi:version="0.32"
   inkscape:version="0.46"
   sodipodi:docname="Hoppy-right.svg"
   inkscape:output_extension="org.inkscape.output.svg.inkscape">
  <metadata
     id="metadata42">
    <rdf:RDF>
      <cc:Work
         rdf:about="">
        <dc:format>image/svg+xml</dc:format>
        <dc:type
           rdf:resource="http://purl.org/dc/dcmitype/StillImage" />
      </cc:Work>
    </rdf:RDF>
  </metadata>
  <sodipodi:namedview
     inkscape:window-height="778"
     inkscape:window-width="1280"
     inkscape:pageshadow="2"
     inkscape:pageopacity="0.0"
     guidetolerance="10.0"
     gridtolerance="10.0"
     objecttolerance="10.0"
     borderopacity="1.0"
     bordercolor="#666666"
     pagecolor="#ffffff"
     id="base"
     showgrid="false"
     inkscape:zoom="0.988"
     inkscape:cx="-15.921106"
     inkscape:cy="247.3797"
     inkscape:window-x="0"
     inkscape:window-y="25"
     inkscape:current-layer="layer3" />
  <defs
     id="defs2389">
    <inkscape:perspective
       sodipodi:type="inkscape:persp3d"
       inkscape:vp_x="0 : 526.18109 : 1"
       inkscape:vp_y="0 : 1000 : 0"
       inkscape:vp_z="744.09448 : 526.18109 : 1"
       inkscape:persp3d-origin="372.04724 : 350.78739 : 1"
       id="perspective44" />
    <inkscape:perspective
       id="perspective2529"
       inkscape:persp3d-origin="372.04724 : 350.78739 : 1"
       inkscape:vp_z="744.09448 : 526.18109 : 1"
       inkscape:vp_y="0 : 1000 : 0"
       inkscape:vp_x="0 : 526.18109 : 1"
       sodipodi:type="inkscape:persp3d" />
  </defs>
  <g
     inkscape:groupmode="layer"
     id="layer3"
     inkscape:label="L1"
     style="display:inline">
    <g
       id="g3430"
       transform="translate(-19.230769,-1.0121457)">
      <path
         sodipodi:nodetypes="csssssssssssssssss"
         d="M 81.287667,182.62639 C 75.065214,189.80824 73.014384,200.64966 71.563855,207.708 C 69.887017,215.86759 68.408918,227.75588 67.414523,235.86308 C 66.737511,241.3827 65.871019,249.72622 65.324101,257.2115 C 64.978416,261.94266 65.166791,275.48463 66.493443,283.64418 C 67.144165,287.64645 69.487735,298.08347 71.494179,306.8709 C 73.563817,315.9351 75.949899,327.76728 78.006958,334.24609 C 79.42677,338.71786 84.02665,347.72833 87.585248,355.29934 C 91.050489,362.67173 95.9124,371.44649 100.53892,379.65854 C 103.68257,385.23849 105.68929,391.11968 113.14051,391.36294 C 121.14457,391.62424 127.32807,384.22596 131.98506,377.48196 C 134.42921,373.94247 136.51211,364.80122 140.75111,356.75058 C 143.34377,351.82661 147.43454,340.01801 149.93557,332.19855 C 152.43691,324.37811 153.69636,317.85758 155.12744,311.5461 C 156.5754,305.16008 159.0133,294.30593 159.90237,286.65577 C 160.73123,279.52377 162.25932,265.20018 161.76698,251.20134 C 161.34338,239.15718 160.06541,223.57224 157.20972,212.50032 C 155.94302,207.58913 150.47609,189.13421 145.61865,182.96897"
         id="path3186"
         style="fill:#00ff00;fill-opacity:1;fill-rule:evenodd;stroke:#000000;stroke-width:3.99999952;stroke-linecap:butt;stroke-linejoin:miter;stroke-miterlimit:4;stroke-dasharray:none;stroke-opacity:1" />
      <path
         sodipodi:nodetypes="csssssssssssssssssss"
         d="M 99.34646,203.59698 C 95.37348,200.29208 91.86721,195.98752 88.9411,191.92807 C 85.97121,187.80791 82.21248,181.63293 80.74087,178.76814 C 78.20308,173.8278 76.49145,169.40133 74.78657,164.47293 C 73.23983,160.00168 71.18772,153.49347 70.3242,148.86298 C 69.22521,142.96979 67.85577,134.80741 68.3037,128.69965 C 68.76127,122.46026 68.60951,114.10314 70.55253,109.75035 C 73.40862,103.35205 73.08949,100.12944 78.35692,95.783126 C 82.17583,92.632011 89.79138,91.864477 94.94298,91.337052 C 102.84277,90.528268 107.69283,90.315549 114.78296,89.898483 C 119.96891,89.593427 128.7796,90.149276 134.92823,90.616043 C 139.5141,90.964174 149.52967,92.188778 153.3624,95.547949 C 156.24188,98.071649 161.3632,103.33138 163.07722,108.29078 C 164.74473,113.11562 165.41624,120.99576 164.74086,126.57843 C 163.89253,133.59067 161.97664,142.0709 160.25325,146.98251 C 158.52516,151.90753 157.22587,158.24973 153.24762,166.60894 C 149.79792,173.85754 146.12885,180.85327 143.39162,185.69599 C 140.18901,191.36205 137.91691,195.31465 132.19132,203.45792 C 129.0377,207.94318 122.79659,213.45901 116.93821,213.25719 C 108.0479,212.95092 105.90742,209.05466 99.34646,203.59698 z"
         id="path3169"
         style="fill:#00ff00;fill-opacity:1;fill-rule:evenodd;stroke:#000000;stroke-width:4.29999924;stroke-linecap:butt;stroke-linejoin:miter;stroke-miterlimit:4;stroke-dasharray:none;stroke-opacity:1" />
      <g
         transform="matrix(-0.8420826,0,0,0.4478511,379.26806,46.086659)"
         id="g2610">
        <path
           sodipodi:nodetypes="csssss"
           d="M 380.69652,-18.065907 C 378.99907,-20.121857 370.47642,-29.490832 368.19869,-29.475633 C 362.71936,-29.439072 357.33841,-27.089285 353.88061,-23.8437 C 349.73869,-19.955974 341.57164,-10.876338 336.87536,0.88491814 C 331.57745,14.152901 329.99483,49.223752 328.51082,68.055689 C 327.05298,86.555451 327.61763,121.96204 327.61763,121.96204"
           id="path2606"
           style="fill:none;fill-rule:evenodd;stroke:#000000;stroke-width:5.69933081;stroke-linecap:butt;stroke-linejoin:miter;stroke-miterlimit:4;stroke-dasharray:none;stroke-opacity:1" />
      </g>
      <g
         transform="matrix(0.8270184,-0.2171011,0.2171011,0.8270184,-17.320341,40.054151)"
         id="g2609">
        <path
           style="fill:#000000;fill-opacity:1;stroke:#000000;stroke-width:2.45602679;stroke-linecap:round;stroke-miterlimit:4;stroke-dasharray:none"
           id="path3526"
           d="M 109.87892,136.63004 C 107.5472,152.94618 98.437427,164.77217 89.529844,163.04645 C 80.622252,161.32074 75.288775,146.69657 77.616109,130.37958 C 79.943447,114.06257 89.05061,102.22941 97.959341,103.94711 C 106.86806,105.66481 112.20602,120.28316 109.88306,136.60101" />
        <path
           style="fill:#f2f2f2;fill-opacity:1;stroke:none;stroke-width:10.37311172;stroke-linecap:round;stroke-miterlimit:4;stroke-dasharray:none;display:inline"
           id="path2395"
           d="M 93.326102,144.93326 C 92.842398,148.01726 91.118456,150.27624 89.475226,149.9793 C 87.832,149.68235 86.891515,146.94188 87.374415,143.85773 C 87.85731,140.77359 89.580788,138.51326 91.224255,138.80869 C 92.86772,139.10412 93.80905,141.84348 93.326958,144.92777" />
      </g>
      <g
         transform="matrix(0.8658456,0.2031087,-0.1796044,0.9791562,45.864663,-36.819)"
         id="g2613">
        <path
           style="fill:#000000;fill-opacity:1;stroke:#000000;stroke-width:2.23318601;stroke-linecap:round;stroke-miterlimit:4;stroke-dasharray:none;display:inline"
           id="path3528"
           d="M 154.51288,144.624 C 152.39314,158.65241 143.927,167.93049 135.60154,165.34901 C 127.27608,162.76754 122.24283,149.30371 124.35847,135.27402 C 126.47412,121.24434 134.9378,111.95966 143.26431,114.53424 C 151.59079,117.1088 156.6282,130.56809 154.51664,144.59903" />
        <path
           style="fill:#f2f2f2;fill-opacity:1;stroke:none;stroke-width:10.09263515;stroke-linecap:round;stroke-miterlimit:4;stroke-dasharray:none;display:inline"
           id="path2397"
           d="M 143.03391,152.21216 C 142.55112,155.21405 140.74251,157.21751 138.99393,156.68742 C 137.24532,156.15733 136.21866,153.29434 136.70059,150.29219 C 137.18252,147.29004 138.99063,145.28517 140.73947,145.8138 C 142.48829,146.3424 143.51585,149.20441 143.03478,152.20683" />
      </g>
      <g
         transform="matrix(0.9646958,0,0,0.4467286,-190.53757,43.683262)"
         id="g3172"
         style="display:inline">
        <path
           sodipodi:nodetypes="cssssss"
           d="M 379.41174,-5.4109244 C 378.7413,-14.185926 374.44346,-25.860416 371.74926,-27.753606 C 370.08637,-28.922102 365.35594,-24.395883 362.4225,-22.681421 C 357.852,-20.010166 353.24429,-14.270574 350.59286,-9.1174658 C 347.34647,-2.808044 341.4122,14.532291 339.08925,23.237909 C 336.97257,31.170517 332.10399,54.86309 330.5637,73.458064 C 329.07438,91.437749 329.9048,124.28343 329.9048,124.28343"
           id="path3174"
           style="fill:none;fill-rule:evenodd;stroke:#000000;stroke-width:5.33151865;stroke-linecap:butt;stroke-linejoin:miter;stroke-miterlimit:4;stroke-dasharray:none;stroke-opacity:1" />
      </g>
      <path
         d="M 67.936328,397.53486 C 74.132868,406.5604 75.982048,412.83286 77.856598,420.17025 C 80.318618,429.80722 80.435918,434.05398 81.570468,440.90912 C 82.365528,445.71303 83.195708,455.87039 82.636778,459.12204 C 81.718098,464.46693 78.997498,463.76518 77.282698,463.15844 C 75.559718,462.5488 73.508138,461.62608 70.658828,455.68574 C 68.308788,450.7863 65.132528,445.05552 62.852658,439.8597 C 61.141688,435.9605 57.601878,426.93536 55.339778,421.24612 C 53.285478,416.07936 52.960128,412.00707 50.134928,401.07282 C 48.721908,395.60405 50.316398,391.67043 50.682838,389.61212 C 51.166648,386.89447 53.342078,386.12419 55.388048,386.61548 C 58.557778,387.37666 63.415038,390.94938 67.936328,397.53486 z"
         id="path3191"
         style="fill:#00ff00;fill-opacity:1;fill-rule:evenodd;stroke:#000000;stroke-width:3.49999976;stroke-linecap:butt;stroke-linejoin:miter;stroke-miterlimit:4;stroke-dasharray:none;stroke-opacity:1;display:inline" />
      <path
         d="M 164.25029,395.0246 C 160.11463,403.57092 159.37263,408.6472 158.75509,414.4839 C 157.94402,422.1499 158.42624,425.18815 158.38449,430.42456 C 158.3552,434.09409 159.03168,441.55409 159.9638,443.65252 C 161.49599,447.10183 163.76021,445.65089 165.16473,444.62031 C 166.57593,443.58479 168.22923,442.2129 169.88471,437.0197 C 171.25012,432.7365 173.21812,427.57631 174.48191,423.10862 C 175.43034,419.75579 177.26075,412.14298 178.44124,407.33329 C 179.51328,402.96531 179.23555,399.97709 180.18338,391.26804 C 180.65741,386.91217 178.73291,384.69624 178.1319,383.37236 C 177.33836,381.62438 175.34479,381.84499 173.63701,382.91041 C 170.99128,384.56108 167.26786,388.78874 164.25029,395.0246 z"
         id="path3201"
         style="fill:#00ff00;fill-opacity:1;fill-rule:evenodd;stroke:#000000;stroke-width:3.49999905;stroke-linecap:butt;stroke-linejoin:miter;stroke-miterlimit:4;stroke-dasharray:none;stroke-opacity:1;display:inline" />
      <path
         d="M 146.26192,331.50244 C 146.85205,337.85759 148.3983,351.96619 150.31878,357.3032 C 153.60449,366.45275 157.4278,372.47331 160.99119,376.08178 C 164.05314,379.18244 170.93917,386.08356 173.44923,387.66182 C 177.57517,390.25616 179.21594,386.60487 179.88371,384.53687 C 180.55463,382.45905 181.22274,379.85641 179.05445,373.19979 C 177.26606,367.70956 176.5617,361.65859 174.53258,356.04324 C 173.00982,351.82916 169.50318,341.99965 167.13501,336.07947 C 164.98427,330.70299 163.11936,325.63098 157.61709,315.73702 C 154.86511,310.78856 152.40241,308.36757 150.26964,308.88658 C 148.01994,309.43404 147.25755,311.32926 146.81529,314.33354 C 146.22679,318.33146 145.73488,325.82643 146.26192,331.50244 z"
         id="path3203"
         style="fill:#00ff00;fill-opacity:1;fill-rule:evenodd;stroke:#000000;stroke-width:3.49999905;stroke-linecap:butt;stroke-linejoin:miter;stroke-miterlimit:4;stroke-dasharray:none;stroke-opacity:1;display:inline" />
      <path
         d="M 76.354512,463.68765 C 76.996181,465.55867 73.76802,469.03543 71.749104,471.17144 C 69.973462,473.05006 67.680711,474.97342 65.646938,476.35252 C 62.227517,478.67124 60.049536,480.97286 56.551262,481.87901"
         id="path3193"
         style="fill:none;fill-rule:evenodd;stroke:#000000;stroke-width:3.49999928;stroke-linecap:butt;stroke-linejoin:miter;stroke-miterlimit:4;stroke-dasharray:none;stroke-opacity:1;display:inline" />
      <path
         d="M 82.583751,459.65793 C 83.685961,461.52894 84.35632,464.75429 83.274564,467.48712 C 82.483528,469.4855 80.66269,473.25436 78.669157,476.00712 C 76.005451,479.68527 73.186889,485.46314 68.997802,487.52063"
         id="path3195"
         style="fill:none;fill-rule:evenodd;stroke:#000000;stroke-width:3.49999928;stroke-linecap:butt;stroke-linejoin:miter;stroke-miterlimit:4;stroke-dasharray:none;stroke-opacity:1;display:inline" />
      <path
         d="M 107.58528,375.17586 C 110.10846,376.25424 111.969,376.46675 114.7335,376.56419 C 116.6046,376.63014 117.96453,376.83873 119.84624,376.59288 C 121.16824,376.42015 122.49164,376.33212 123.69802,375.8574 C 124.11661,375.69268 123.78803,375.59777 123.86669,375.37091"
         id="path3209"
         style="fill:none;fill-rule:evenodd;stroke:#000000;stroke-width:2.99999952;stroke-linecap:round;stroke-linejoin:miter;stroke-miterlimit:4;stroke-dasharray:none;stroke-opacity:1" />
      <path
         d="M 106.94054,358.10884 C 109.96243,359.20869 112.20964,359.43673 115.55572,359.55713 C 117.8205,359.63863 119.4613,359.85859 121.74902,359.62821 C 123.35627,359.46636 124.96247,359.38925 126.43943,358.9243 C 126.95192,358.76297 126.55692,358.66529 126.65956,358.43896"
         id="path3211"
         style="fill:none;fill-rule:evenodd;stroke:#000000;stroke-width:2.99999952;stroke-linecap:round;stroke-linejoin:miter;stroke-miterlimit:4;stroke-dasharray:none;stroke-opacity:1;display:inline" />
      <path
         d="M 98.95877,337.16377 C 104.54175,339.4726 108.617,339.76378 114.65661,339.6676 C 118.74446,339.60251 120.28397,339.59618 124.44061,339.25701 C 127.57591,339.00118 129.55201,338.83304 132.19548,337.99659 C 133.15598,337.69267 133.85186,337.09688 135.26781,336.41481"
         id="path3213"
         style="fill:none;fill-rule:evenodd;stroke:#000000;stroke-width:2.99999952;stroke-linecap:round;stroke-linejoin:miter;stroke-miterlimit:4;stroke-dasharray:none;stroke-opacity:1;display:inline" />
      <path
         d="M 88.863429,312.16257 C 97.209767,317.5392 103.21526,318.39723 112.08262,318.50805 C 118.08445,318.5831 120.34588,318.65135 126.43167,318.12719 C 131.0221,317.73182 133.91491,317.46746 137.74658,315.76869 C 139.13882,315.15145 140.12411,313.87806 142.16191,312.45335"
         id="path3215"
         style="fill:none;fill-rule:evenodd;stroke:#000000;stroke-width:2.99999952;stroke-linecap:round;stroke-linejoin:miter;stroke-miterlimit:4;stroke-dasharray:none;stroke-opacity:1;display:inline" />
      <path
         d="M 82.163314,287.37613 C 92.488219,293.33452 99.841774,294.18748 110.67059,294.12816 C 118.00002,294.08805 120.76267,294.11853 128.1796,293.39314 C 133.77407,292.84597 137.29924,292.48382 141.93462,290.46576 C 143.61888,289.73248 144.78983,288.25927 147.242,286.59139"
         id="path3217"
         style="fill:none;fill-rule:evenodd;stroke:#000000;stroke-width:2.99999928;stroke-linecap:round;stroke-linejoin:miter;stroke-miterlimit:4;stroke-dasharray:none;stroke-opacity:1;display:inline" />
      <path
         d="M 82.654492,262.91023 C 92.979401,268.86863 100.33295,269.72159 111.16178,269.66226 C 118.49119,269.62216 121.25386,269.65263 128.67077,268.92724 C 134.26526,268.38008 137.79041,268.01793 142.42579,265.99985 C 144.11006,265.26658 145.28101,263.79338 147.73317,262.12549"
         id="path3219"
         style="fill:none;fill-rule:evenodd;stroke:#000000;stroke-width:2.99999928;stroke-linecap:round;stroke-linejoin:miter;stroke-miterlimit:4;stroke-dasharray:none;stroke-opacity:1;display:inline" />
      <path
         d="M 87.839518,243.35652 C 96.722311,248.28608 103.06501,248.96361 112.41155,248.86214 C 118.73772,248.79351 121.12198,248.80574 127.52694,248.16403 C 132.3581,247.68 135.40237,247.36048 139.41279,245.65189 C 140.86999,245.03107 141.88767,243.7944 144.0121,242.38891"
         id="path3221"
         style="fill:none;fill-rule:evenodd;stroke:#000000;stroke-width:2.99999928;stroke-linecap:round;stroke-linejoin:miter;stroke-miterlimit:4;stroke-dasharray:none;stroke-opacity:1;display:inline" />
      <path
         d="M 93.406876,224.14209 C 99.914521,227.21926 104.7993,227.60639 112.08956,227.47643 C 117.02392,227.38851 118.88046,227.37963 123.92421,226.92619 C 127.72863,226.58418 130.12712,226.35941 133.39467,225.24331 C 134.58192,224.83777 135.47836,224.0431 137.25117,223.13321"
         id="path3223"
         style="fill:none;fill-rule:evenodd;stroke:#000000;stroke-width:2.99999928;stroke-linecap:round;stroke-linejoin:miter;stroke-miterlimit:4;stroke-dasharray:none;stroke-opacity:1;display:inline" />
      <path
         d="M 86.03229,332.32331 C 85.90539,347.13177 82.56491,354.79952 79.69799,362.6708 C 75.94013,372.98819 68.92277,380.35642 64.6247,385.65867 C 61.459,389.564 56.94803,395.57145 54.23027,397.16829 C 49.76295,399.7931 48.06209,397.85253 47.20264,395.48727 C 46.33912,393.11076 45.44997,390.14591 47.5074,382.83032 C 49.20434,376.79654 51.48002,369.86555 53.43908,363.70813 C 54.90924,359.08724 58.32199,349.07354 60.64312,342.5976 C 62.75112,336.71644 65.69049,331.1021 71.29516,320.38596 C 74.09837,315.02629 77.00517,312.09708 78.73502,311.10064 C 81.01901,309.78499 83.19762,311.11614 84.38744,313.7785 C 86.23073,317.90316 86.08769,325.85824 86.03229,332.32331 z"
         id="path3189"
         style="fill:#00ff00;fill-opacity:1;fill-rule:evenodd;stroke:#000000;stroke-width:3.49999881;stroke-linecap:butt;stroke-linejoin:miter;stroke-miterlimit:4;stroke-dasharray:none;stroke-opacity:1;display:inline" />
      <path
         d="M 109.88452,167.2019 L 111.93114,173.36549"
         id="path3176"
         style="fill:none;fill-rule:evenodd;stroke:#000000;stroke-width:3.99999976;stroke-linecap:round;stroke-linejoin:miter;stroke-miterlimit:4;stroke-dasharray:none;stroke-opacity:1;display:inline" />
      <path
         d="M 125.37883,166.92003 L 122.65165,173.26398"
         id="path3178"
         style="fill:none;fill-rule:evenodd;stroke:#000000;stroke-width:3.99999952;stroke-linecap:round;stroke-linejoin:miter;stroke-miterlimit:4;stroke-dasharray:none;stroke-opacity:1;display:inline" />
      <path
         d="M 44.786424,253.54154 C 51.141764,247.0561 52.632494,245.0117 58.497934,238.18997 C 63.742284,231.75829 66.454804,229.10563 71.063304,222.62431 C 73.518714,219.17103 76.836184,214.93793 77.690054,211.10219 C 79.093584,204.79723 78.114024,202.58962 76.906004,201.56502 C 75.692244,200.53553 74.175794,199.50949 70.384704,202.81404 C 67.257864,205.53961 63.662284,209.11854 60.468744,212.212 C 58.072114,214.53352 52.875894,219.87572 49.514124,223.48722 C 46.461084,226.76702 43.535824,231.17065 37.952414,239.56805 C 35.159854,243.76802 33.036244,247.99345 32.503034,250.43357 C 31.799004,253.65538 33.040654,256.51607 34.397824,257.97472 C 36.500444,260.23451 41.681184,256.71036 44.786424,253.54154 z"
         id="path3515"
         style="fill:#00ff00;fill-opacity:1;fill-rule:evenodd;stroke:#000000;stroke-width:3.49999928;stroke-linecap:butt;stroke-linejoin:miter;stroke-miterlimit:4;stroke-dasharray:none;stroke-opacity:1;display:inline" />
      <path
         d="M 58.601713,275.75309 C 55.013314,270.3207 54.040833,269.12264 50.397173,264.3937 C 47.11581,260.13498 45.576245,257.84845 42.368899,254.38139 C 40.660018,252.53413 38.498382,249.9235 37.007433,249.98067 C 34.556678,250.07464 34.018283,251.76345 33.932145,253.39533 C 33.845592,255.03502 33.826,257.01452 35.774572,260.40483 C 37.381719,263.2011 39.381169,266.29848 41.128027,269.07215 C 42.438974,271.15371 45.386399,275.58482 47.346109,278.41037 C 49.125842,280.97641 51.260264,283.10024 55.331582,287.15607 C 57.367845,289.18459 59.126481,289.81014 60.072798,289.76253 C 61.322249,289.69968 62.166851,288.18566 62.368288,286.27063 C 62.680356,283.30373 60.355036,278.4074 58.601713,275.75309 z"
         id="path3180"
         style="fill:#00ff00;fill-opacity:1;fill-rule:evenodd;stroke:#000000;stroke-width:3.49999928;stroke-linecap:butt;stroke-linejoin:miter;stroke-miterlimit:4;stroke-dasharray:none;stroke-opacity:1;display:inline" />
      <path
         d="M 89.075887,279.6638 C 83.01723,280.04595 81.543917,280.37519 75.887033,280.5887 C 70.792598,280.78098 68.219454,280.67777 63.681142,281.33225 C 61.263136,281.68096 58.030718,281.93832 56.979588,283.36186 C 55.251799,285.7018 55.93032,287.3347 56.902587,288.50924 C 57.879495,289.68939 59.338816,290.18541 62.692327,291.49877 C 64.25648,292.11136 69.521502,293.36737 72.554845,293.60472 C 74.831251,293.78287 79.799104,294.32486 83.012925,294.09085 C 85.24771,293.92813 90.223965,292.67876 92.54204,291.73161 C 95.154597,290.66415 97.867473,289.11435 97.538028,288.03863 C 97.041281,286.41661 84.922671,288.31377 82.090559,286.98472 C 85.706015,284.50432 97.084572,284.6643 97.227575,282.29744 C 97.397453,279.48578 92.153343,279.46968 89.075887,279.6638 z"
         id="path2418"
         style="fill:#00ff00;fill-opacity:1;fill-rule:evenodd;stroke:#000000;stroke-width:3.49999928;stroke-linecap:butt;stroke-linejoin:miter;stroke-miterlimit:4;stroke-dasharray:none;stroke-opacity:1;display:inline" />
      <path
         d="M 157.32751,221.3921 C 164.79802,227.06207 166.70777,228.28641 173.96362,233.14711 C 180.49806,237.52451 183.6847,239.90683 189.78043,243.39315 C 193.02822,245.25067 197.25125,247.91237 199.38597,247.63206 C 202.89492,247.17128 202.96714,245.1699 202.40844,243.29859 C 201.84705,241.41839 201.04642,239.16077 196.80533,235.58021 C 193.30739,232.627 189.11533,229.38743 185.42454,226.48014 C 182.65476,224.29832 176.53163,219.67633 172.51095,216.74068 C 168.85955,214.07468 164.87978,211.96349 157.2866,207.93124 C 153.48887,205.91451 150.68069,205.45578 149.33052,205.6466 C 147.54782,205.89854 146.95905,207.74501 147.46941,209.95546 C 148.26011,213.38005 153.67738,218.62173 157.32751,221.3921 z"
         id="path3184"
         style="fill:#00ff00;fill-opacity:1;fill-rule:evenodd;stroke:#000000;stroke-width:3.49999881;stroke-linecap:butt;stroke-linejoin:miter;stroke-miterlimit:4;stroke-dasharray:none;stroke-opacity:1;display:inline" />
      <path
         d="M 190.18173,283.75674 C 193.15583,276.91283 193.7447,275.19542 196.14123,268.64045 C 198.29947,262.7372 199.54049,259.82305 201.09913,254.40143 C 201.92958,251.51279 203.19702,247.7216 202.59986,246.03734 C 201.61829,243.26882 200.08148,243.49628 198.75716,244.21481 C 197.42654,244.93677 195.85155,245.90587 193.88773,249.84287 C 192.26804,253.09005 190.55506,256.93876 189.00496,260.33511 C 187.84164,262.88397 185.42328,268.48987 183.91089,272.15676 C 182.53741,275.48687 181.64542,279.00297 179.94027,285.71209 C 179.08745,289.06765 179.243,291.40144 179.63097,292.46479 C 180.14325,293.86875 181.65498,294.08064 183.24622,293.35273 C 185.71147,292.22501 188.72855,287.10074 190.18173,283.75674 z"
         id="path3182"
         style="fill:#00ff00;fill-opacity:1;fill-rule:evenodd;stroke:#000000;stroke-width:3.49999928;stroke-linecap:butt;stroke-linejoin:miter;stroke-miterlimit:4;stroke-dasharray:none;stroke-opacity:1;display:inline" />
      <path
         d="M 156.62574,285.60314 C 161.87611,285.89125 163.15397,286.15638 168.05547,286.30709 C 172.46963,286.44282 174.69823,286.34599 178.63281,286.86578 C 180.72916,287.14272 183.53059,287.34058 184.4479,288.51095 C 185.95574,290.43478 185.37569,291.7858 184.539,292.75977 C 183.69832,293.73839 182.43647,294.15445 179.53758,295.25377 C 178.18548,295.76652 173.6304,296.82712 171.00379,297.03674 C 169.03261,297.19408 164.73157,297.66392 161.94638,297.48527 C 160.00964,297.36104 155.69285,296.35215 153.68024,295.58075 C 151.41196,294.71135 149.05448,293.44425 149.33478,292.55475 C 149.75743,291.21355 160.26461,292.72492 162.71173,291.615 C 159.56797,289.58376 149.71161,289.7672 149.57652,287.81401 C 149.41602,285.49376 153.95886,285.45679 156.62574,285.60314 z"
         id="path2420"
         style="fill:#00ff00;fill-opacity:1;fill-rule:evenodd;stroke:#000000;stroke-width:3.49999928;stroke-linecap:butt;stroke-linejoin:miter;stroke-miterlimit:4;stroke-dasharray:none;stroke-opacity:1;display:inline" />
      <path
         d="M 165.39146,444.04574 C 164.74979,445.91676 167.97796,449.39352 169.99687,451.52953 C 171.77251,453.40815 174.06526,455.33151 176.09904,456.71061 C 179.51846,459.02933 181.69644,461.33095 185.19471,462.2371"
         id="path3397"
         style="fill:none;fill-rule:evenodd;stroke:#000000;stroke-width:3.49999928;stroke-linecap:butt;stroke-linejoin:miter;stroke-miterlimit:4;stroke-dasharray:none;stroke-opacity:1;display:inline" />
      <path
         d="M 159.16222,440.01602 C 158.06001,441.88703 157.38966,445.11238 158.47141,447.84521 C 159.26245,449.84359 161.08329,453.61245 163.07682,456.36521 C 165.74052,460.04336 168.55909,465.82123 172.74817,467.87872"
         id="path3399"
         style="fill:none;fill-rule:evenodd;stroke:#000000;stroke-width:3.49999928;stroke-linecap:butt;stroke-linejoin:miter;stroke-miterlimit:4;stroke-dasharray:none;stroke-opacity:1;display:inline" />
      <path
         sodipodi:nodetypes="css"
         d="M 80.201387,173.03157 C 80.201387,173.03157 106.94148,196.57423 115.70284,196.81755 C 123.75589,197.038 148.67006,173.96672 148.67006,173.96672"
         id="path3410"
         style="fill:none;fill-rule:evenodd;stroke:#000000;stroke-width:4;stroke-linecap:round;stroke-linejoin:miter;stroke-miterlimit:4;stroke-dasharray:none;stroke-opacity:1;display:inline" />
      <path
         id="path3416"
         d="M 114.88553,210.88997 C 112.69958,210.61578 110.3457,209.78299 108.81732,208.74309 C 107.97421,208.16944 106.12357,206.6696 104.92807,205.59108 C 104.37139,205.08887 102.80573,203.70599 101.44882,202.51801 C 100.09192,201.33004 98.363588,199.72945 97.608096,198.96114 C 94.170654,195.46542 90.064804,190.00348 86.157141,183.72815 C 84.822528,181.58489 82.929123,178.27607 82.997928,178.20727 C 83.026775,178.17842 83.987534,178.92612 85.132951,179.86883 C 97.342633,189.91775 106.9194,196.33176 112.50391,198.20045 C 115.59292,199.2341 117.45606,199.05061 121.09684,197.35418 C 125.91246,195.11033 132.48261,190.47084 141.61142,182.86786 C 142.30345,182.29149 142.89221,181.84247 142.91976,181.87002 C 142.97231,181.92257 142.6975,182.43418 140.94571,185.545 C 138.09083,190.6147 135.69972,194.44833 132.30484,199.39875 C 129.7154,203.17467 128.94771,204.14082 127.17786,205.85118 C 124.29336,208.63869 121.55254,210.2991 118.91143,210.85903 C 117.99432,211.05346 116.29308,211.06654 114.88553,210.88998 L 114.88553,210.88997 z"
         style="fill:#f9f9f9;fill-opacity:1;stroke:none;stroke-width:2.79999995;stroke-linecap:round;stroke-miterlimit:4;stroke-dasharray:none;stroke-opacity:1" />
      <path
         d="M 94.604804,187.16282 L 94.666464,196.81999"
         id="path3418"
         style="fill:none;fill-rule:evenodd;stroke:#000000;stroke-width:1.25;stroke-linecap:round;stroke-linejoin:miter;stroke-miterlimit:4;stroke-dasharray:none;stroke-opacity:1;display:inline" />
      <path
         d="M 116.53597,198.43762 L 116.59763,210.87819"
         id="path3422"
         style="fill:none;fill-rule:evenodd;stroke:#000000;stroke-width:1.25;stroke-linecap:round;stroke-linejoin:miter;stroke-miterlimit:4;stroke-dasharray:none;stroke-opacity:1;display:inline" />
      <path
         d="M 104.72625,194.18457 L 104.78791,205.73951"
         id="path3424"
         style="fill:none;fill-rule:evenodd;stroke:#000000;stroke-width:1.25;stroke-linecap:round;stroke-linejoin:miter;stroke-miterlimit:4;stroke-dasharray:none;stroke-opacity:1;display:inline" />
      <path
         d="M 126.85277,194.24783 L 126.91443,205.80277"
         id="path3426"
         style="fill:none;fill-rule:evenodd;stroke:#000000;stroke-width:1.25;stroke-linecap:round;stroke-linejoin:miter;stroke-miterlimit:4;stroke-dasharray:none;stroke-opacity:1;display:inline" />
      <path
         d="M 134.98435,187.41585 L 135.04601,197.07302"
         id="path3428"
         style="fill:none;fill-rule:evenodd;stroke:#000000;stroke-width:1.25;stroke-linecap:round;stroke-linejoin:miter;stroke-miterlimit:4;stroke-dasharray:none;stroke-opacity:1;display:inline" />
    </g>
  </g>
</svg>
