<?xml version="1.0" encoding="UTF-8" standalone="no"?>
<!-- Created with Inkscape (http://www.inkscape.org/) -->
<svg
   xmlns:dc="http://purl.org/dc/elements/1.1/"
   xmlns:cc="http://creativecommons.org/ns#"
   xmlns:rdf="http://www.w3.org/1999/02/22-rdf-syntax-ns#"
   xmlns:svg="http://www.w3.org/2000/svg"
   xmlns="http://www.w3.org/2000/svg"
   xmlns:sodipodi="http://sodipodi.sourceforge.net/DTD/sodipodi-0.dtd"
   xmlns:inkscape="http://www.inkscape.org/namespaces/inkscape"
   version="1.0"
   width="200"
   height="500"
   id="svg2387"
   style="display:inline"
   sodipodi:version="0.32"
   inkscape:version="0.46"
   sodipodi:docname="Hoppy-wrong.svg"
   inkscape:output_extension="org.inkscape.output.svg.inkscape">
  <metadata
     id="metadata42">
    <rdf:RDF>
      <cc:Work
         rdf:about="">
        <dc:format>image/svg+xml</dc:format>
        <dc:type
           rdf:resource="http://purl.org/dc/dcmitype/StillImage" />
      </cc:Work>
    </rdf:RDF>
  </metadata>
  <sodipodi:namedview
     inkscape:window-height="714"
     inkscape:window-width="973"
     inkscape:pageshadow="2"
     inkscape:pageopacity="0.0"
     guidetolerance="10.0"
     gridtolerance="10.0"
     objecttolerance="10.0"
     borderopacity="1.0"
     bordercolor="#666666"
     pagecolor="#ffffff"
     id="base"
     showgrid="false"
     inkscape:zoom="0.988"
     inkscape:cx="263.10641"
     inkscape:cy="228.62943"
     inkscape:window-x="0"
     inkscape:window-y="86"
     inkscape:current-layer="svg2387" />
  <defs
     id="defs2389">
    <inkscape:perspective
       sodipodi:type="inkscape:persp3d"
       inkscape:vp_x="0 : 526.18109 : 1"
       inkscape:vp_y="0 : 1000 : 0"
       inkscape:vp_z="744.09448 : 526.18109 : 1"
       inkscape:persp3d-origin="372.04724 : 350.78739 : 1"
       id="perspective44" />
  </defs>
  <path
     style="fill:#00ff00;fill-opacity:1;fill-rule:evenodd;stroke:#000000;stroke-width:3.99999952;stroke-linecap:butt;stroke-linejoin:miter;stroke-miterlimit:4;stroke-dasharray:none;stroke-opacity:1"
     id="path3186"
     d="M 83.751211,180.35546 C 77.022685,186.7782 76.110519,198.37873 74.65999,205.43707 C 72.983152,213.59666 71.505053,223.71369 70.510658,231.82089 C 69.833646,237.34051 68.9646,245.68384 68.420236,253.16931 C 68.071997,257.90028 68.262926,271.44244 69.589578,279.60199 C 70.2403,283.60426 72.58387,294.04128 74.590314,302.82871 C 76.659952,311.89291 79.046034,323.72509 81.103093,330.2039 C 82.522905,334.67567 87.122785,343.68614 90.681383,351.25715 C 94.146624,358.62954 99.008535,367.4043 103.63506,375.61635 C 106.77871,381.1963 108.78543,387.07749 116.23664,387.32075 C 124.2407,387.58205 130.4242,380.18377 135.08119,373.43977 C 137.52534,369.90028 139.60824,360.75903 143.84724,352.70839 C 146.43991,347.78442 149.51853,336.48189 152.01956,328.66243 C 154.52089,320.84199 155.78035,313.81539 157.21142,307.50391 C 158.65939,301.11789 160.08515,291.78196 160.97422,284.1318 C 161.80308,276.9998 163.01795,260.99991 160.86311,247.15915 C 159.93345,241.18786 158.65547,232.15758 157.82407,226.14639 C 157.12919,221.1223 156.22911,215.58291 152.88988,211.44196" />
  <path
     style="fill:#00ff00;fill-opacity:1;fill-rule:evenodd;stroke:#000000;stroke-width:3.49999928;stroke-linecap:butt;stroke-linejoin:miter;stroke-miterlimit:4;stroke-dasharray:none;stroke-opacity:1;display:inline"
     id="path3184"
     d="M 178.17735,166.64548 C 175.75796,177.22288 174.9826,179.73393 172.18231,189.45346 C 169.66043,198.20659 168.60314,202.68742 165.83443,210.34105 C 164.35927,214.41889 162.61288,219.93242 160.59717,221.32606 C 157.28385,223.61685 155.82761,221.9568 155.00005,219.92533 C 154.16858,217.88418 153.27812,215.33645 154.3996,209.02156 C 155.32455,203.81315 156.64186,197.82806 157.76325,192.5114 C 158.60479,188.52146 160.60549,179.87351 161.98842,174.28007 C 163.24437,169.20035 165.16695,164.34486 168.83217,155.0772 C 170.66533,150.44198 172.74035,147.89946 174.02467,147.02961 C 175.72042,145.88108 177.5092,147.01301 178.61432,149.29816 C 180.32642,152.83846 179.35947,161.47727 178.17735,166.64548 z" />
  <path
     style="fill:#00ff00;fill-opacity:1;fill-rule:evenodd;stroke:#000000;stroke-width:4.29999924;stroke-linecap:butt;stroke-linejoin:miter;stroke-miterlimit:4;stroke-dasharray:none;stroke-opacity:1"
     id="path3169"
     d="M 135.38408,212.09652 C 130.10619,210.99353 127.05774,209.58295 122.25339,207.23272 C 117.37717,204.84734 110.66395,200.9182 107.78335,198.9561 C 102.81574,195.57245 98.847917,192.25319 94.602747,188.45481 C 90.751359,185.00877 85.316618,179.89089 81.962472,175.94447 C 77.693685,170.92189 72.295215,164.33358 70.140349,157.9359 C 68.360935,152.65293 65.170757,145.49171 64.384859,140.37288 C 63.229643,132.84857 63.194007,125.15811 65.268351,118.34496 C 66.772264,113.40538 70.516286,108.74341 74.645405,105.60851 C 80.977274,100.80125 84.647848,96.905995 90.504975,92.884093 C 94.789062,89.942347 99.343875,87.714743 104.31902,86.500441 C 108.82148,85.401506 113.88993,86.005219 118.53671,88.617083 C 121.69523,90.392432 125.36934,94.233353 129.0512,98.626188 C 131.69403,101.77934 137.83673,109.47436 140.55848,113.4753 C 144.0606,118.62338 146.60202,125.73167 147.76487,128.86749 C 149.67369,134.01492 150.60834,138.09099 152.66697,143.15378 C 155.49992,150.12083 156.84527,155.49583 159.3076,161.42421 C 161.84472,167.53262 163.41902,174.05652 165.08176,180.49893 C 166.48998,185.95515 166.13594,190.8357 167.03481,196.55687 C 167.93368,202.27804 166.38908,208.53946 161.264,211.38577 C 156.45745,214.05517 153.12783,214.11801 147.40875,213.92532 C 143.32445,213.7877 139.32006,212.91906 135.38408,212.09652 z" />
  <g
     id="g2610"
     transform="matrix(0.3201117,0,0,0.5605646,-33.64721,43.036648)">
    <path
       style="fill:none;fill-rule:evenodd;stroke:#000000;stroke-width:8.26236534;stroke-linecap:butt;stroke-linejoin:miter;stroke-miterlimit:4;stroke-dasharray:none;stroke-opacity:1"
       id="path2606"
       d="M 379.41174,-5.4109244 C 380.23108,-24.297477 378.15125,-21.818471 375.5882,-25.410924 C 374.12138,-27.466874 367.27602,-28.36083 365.30777,-28.345631 C 360.57291,-28.30907 354.3065,-25.718416 351.11745,-23.5612 C 342.86439,-17.97847 339.96157,-12.571342 335.90338,-0.81008579 C 331.32529,12.457897 327.55379,52.048758 328.67532,66.360685 C 330.12125,84.812253 336.61767,127.04706 336.61767,127.04706" />
  </g>
  <path
     style="fill:#000000;fill-opacity:1;stroke:#000000;stroke-width:2.09999943;stroke-linecap:round;stroke-miterlimit:4;stroke-dasharray:none"
     id="path3526"
     d="M 103.68078,136.49847 C 110.02303,151.71127 108.24428,166.53281 99.707472,169.60624 C 91.170655,172.67968 79.10733,162.84157 72.760877,147.63028 C 66.414424,132.41898 68.187249,117.59261 76.720945,114.5117 C 85.254636,111.4308 97.31884,121.26162 103.66949,136.4714" />
  <path
     style="fill:#000000;fill-opacity:1;stroke:#000000;stroke-width:2.09999919;stroke-linecap:round;stroke-miterlimit:4;stroke-dasharray:none;display:inline"
     id="path3528"
     d="M 146.12275,120.53686 C 151.47695,133.67543 148.94799,145.97838 140.47366,148.01872 C 131.99932,150.05906 120.7875,141.06443 115.42913,127.92686 C 110.07076,114.78929 112.59421,102.48192 121.06592,100.43512 C 129.53761,98.388329 140.75068,107.37692 146.11321,120.51348" />
  <path
     style="fill:#f2f2f2;fill-opacity:1;stroke:none;stroke-width:10.37311172;stroke-linecap:round;stroke-miterlimit:4;stroke-dasharray:none;display:inline"
     id="path2395"
     d="M 93.704464,152.10015 C 94.866318,154.99758 94.540464,157.82049 92.976583,158.40586 C 91.412702,158.99122 89.20279,157.11746 88.040167,154.22031 C 86.877544,151.32317 87.202312,148.49934 88.765622,147.91255 C 90.328931,147.32576 92.539004,149.19814 93.702395,152.095" />
  <path
     style="fill:#f2f2f2;fill-opacity:1;stroke:none;stroke-width:10.09263515;stroke-linecap:round;stroke-miterlimit:4;stroke-dasharray:none;display:inline"
     id="path2397"
     d="M 140.14053,132.92879 C 141.26117,135.7552 140.73186,138.40185 138.95818,138.84077 C 137.1845,139.2797 134.83786,137.34474 133.71636,134.51855 C 132.59485,131.69235 133.12301,129.04475 134.89614,128.60444 C 136.66926,128.16412 139.01616,130.09778 140.13854,132.92376" />
  <g
     style="display:inline"
     id="g3172"
     transform="matrix(0.4787467,0,0,0.4467286,-52.150628,45.183585)">
    <path
       style="fill:none;fill-rule:evenodd;stroke:#000000;stroke-width:7.56821108;stroke-linecap:butt;stroke-linejoin:miter;stroke-miterlimit:4;stroke-dasharray:none;stroke-opacity:1"
       id="path3174"
       d="M 379.41174,-5.4109244 C 378.7413,-14.185926 377.65466,-19.42363 375.09161,-23.016083 C 373.62479,-25.072033 368.7658,-28.36083 365.30777,-28.345631 C 360.57284,-28.32133 356.12955,-28.431098 351.11745,-23.5612 C 347.13448,-19.691227 341.45135,-5.1207254 339.87614,3.9795963 C 337.46861,17.888351 333.02203,51.747775 332.39978,66.094592 C 331.61103,84.280066 332.39662,125.98269 332.39662,125.98269" />
  </g>
  <path
     style="fill:#00ff00;fill-opacity:1;fill-rule:evenodd;stroke:#000000;stroke-width:3.49999928;stroke-linecap:butt;stroke-linejoin:miter;stroke-miterlimit:4;stroke-dasharray:none;stroke-opacity:1;display:inline"
     id="path3180"
     d="M 60.510344,125.97517 C 59.395128,135.9642 58.857304,138.35034 57.048469,147.57167 C 55.419484,155.87613 54.903041,160.11008 52.712993,167.41282 C 51.546132,171.30373 50.305567,176.54625 47.853286,177.98713 C 43.822347,180.35558 41.503167,178.92286 39.961857,177.0994 C 38.413196,175.26724 36.680419,172.96954 36.907501,167.02966 C 37.094792,162.13055 37.65563,156.48219 38.087523,151.46823 C 38.411623,147.70544 39.354207,139.5369 40.084604,134.24697 C 40.747932,129.44288 42.363,124.79778 45.439612,115.932 C 46.978377,111.49778 49.275392,108.9869 50.841593,108.08562 C 52.909513,106.89562 55.57203,107.81404 57.542512,109.8524 C 60.595294,113.01035 61.055247,121.09444 60.510344,125.97517 z" />
  <path
     style="fill:#00ff00;fill-opacity:1;fill-rule:evenodd;stroke:#000000;stroke-width:3.49999928;stroke-linecap:butt;stroke-linejoin:miter;stroke-miterlimit:4;stroke-dasharray:none;stroke-opacity:1;display:inline"
     id="path3182"
     d="M 153.58198,93.733514 C 159.3576,103.64736 160.58362,106.17446 165.47426,115.78267 C 169.87862,124.43558 172.30192,128.66327 175.74624,136.71598 C 177.58137,141.00648 180.24169,146.5932 179.77787,149.36492 C 179.01546,153.92094 176.78389,153.9506 174.74196,153.16253 C 172.69032,152.37071 170.23585,151.2551 166.55462,145.61526 C 163.51842,140.96362 160.21306,135.39862 157.24164,130.4973 C 155.01166,126.81903 150.30598,118.69406 147.3265,113.36209 C 144.62068,108.51981 142.5555,103.26767 138.61046,93.24677 C 136.63734,88.234808 136.32701,84.562006 136.63539,82.809374 C 137.04259,80.495307 139.13863,79.787809 141.56129,80.523809 C 145.31462,81.664065 150.75997,88.889522 153.58198,93.733514 z" />
  <path
     style="fill:#00ff00;fill-opacity:1;fill-rule:evenodd;stroke:#000000;stroke-width:3.49999928;stroke-linecap:butt;stroke-linejoin:miter;stroke-miterlimit:4;stroke-dasharray:none;stroke-opacity:1;display:inline"
     id="path3191"
     d="M 77.994963,414.0855 C 76.698074,421.5524 74.407488,425.16649 71.564834,429.20916 C 67.831268,434.51883 65.638884,436.23836 62.634338,439.61995 C 60.528824,441.98968 55.595839,446.45476 53.550399,447.3555 C 50.188203,448.83612 49.02322,446.82039 48.376386,445.4862 C 47.72648,444.14565 47.057283,442.47323 48.605752,438.34662 C 49.882898,434.9431 51.135087,430.68805 52.609516,427.21475 C 53.715999,424.60819 56.51478,418.84451 58.261711,415.19155 C 59.848237,411.8741 61.830205,410.08877 66.048403,404.04399 C 68.158152,401.02069 71.151826,400.51973 72.453746,399.95766 C 74.172723,399.21553 75.812384,400.31181 76.707873,401.81359 C 78.09517,404.14024 78.941239,408.63729 77.994963,414.0855 z" />
  <path
     style="fill:#00ff00;fill-opacity:1;fill-rule:evenodd;stroke:#000000;stroke-width:3.49999905;stroke-linecap:butt;stroke-linejoin:miter;stroke-miterlimit:4;stroke-dasharray:none;stroke-opacity:1;display:inline"
     id="path3201"
     d="M 156.00709,411.53924 C 154.80724,418.33053 152.95036,421.57934 150.65808,425.20696 C 147.64737,429.9715 145.91777,431.49184 143.51935,434.51183 C 141.83861,436.62815 137.93058,440.59353 136.33619,441.36929 C 133.7154,442.64446 132.8766,440.77625 132.41676,439.54255 C 131.95474,438.30297 131.48701,436.75978 132.78842,433.0257 C 133.86178,429.94592 134.93933,426.08767 136.16601,422.9487 C 137.08657,420.59302 139.39234,415.39223 140.83307,412.0954 C 142.14151,409.10137 143.71143,407.51607 147.1142,402.09115 C 148.81611,399.37787 151.12724,398.98915 152.14177,398.50565 C 153.48129,397.86727 154.70955,398.90649 155.35562,400.299 C 156.35651,402.45638 156.88258,406.58398 156.00709,411.53924 z" />
  <path
     style="fill:#00ff00;fill-opacity:1;fill-rule:evenodd;stroke:#000000;stroke-width:3.49999905;stroke-linecap:butt;stroke-linejoin:miter;stroke-miterlimit:4;stroke-dasharray:none;stroke-opacity:1;display:inline"
     id="path3203"
     d="M 137.66702,360.4818 C 136.53034,364.66603 134.19443,374.01995 134.37133,377.92485 C 134.66931,384.61742 136.18453,389.47712 138.10264,392.73883 C 139.75082,395.54154 143.47564,401.79901 145.07014,403.48672 C 147.69111,406.26095 149.9163,404.40023 150.96891,403.2746 C 152.02652,402.14361 153.21446,400.6797 153.1741,395.87158 C 153.1408,391.90596 154.10993,387.88289 153.91705,383.77202 C 153.77232,380.68698 153.47069,373.50342 153.08559,369.10656 C 152.73582,365.1135 152.5361,361.39157 150.66607,353.6196 C 149.73076,349.73245 148.38671,347.52435 146.56206,347.26758 C 144.63734,346.99673 143.55323,347.98703 142.44319,349.76714 C 140.96603,352.136 138.68222,356.74472 137.66702,360.4818 z" />
  <path
     style="fill:none;fill-rule:evenodd;stroke:#000000;stroke-width:3.49999928;stroke-linecap:butt;stroke-linejoin:miter;stroke-miterlimit:4;stroke-dasharray:none;stroke-opacity:1;display:inline"
     id="path3197"
     d="M 133.98071,442.17288 C 133.44486,444.53626 134.93114,449.66725 136.61713,452.36537 C 138.09996,454.73836 140.01462,457.16787 141.71301,458.9099 C 144.56854,461.83881 146.96303,463.24935 150.22982,464.27883" />
  <path
     style="fill:none;fill-rule:evenodd;stroke:#000000;stroke-width:3.49999928;stroke-linecap:butt;stroke-linejoin:miter;stroke-miterlimit:4;stroke-dasharray:none;stroke-opacity:1;display:inline"
     id="path3199"
     d="M 141.36686,435.7253 C 140.831,438.08868 142.31729,443.21967 144.00327,445.91779 C 145.4861,448.29078 147.40076,450.72029 149.09915,452.46231 C 151.95468,455.39123 153.19782,455.99582 156.34948,458.86746" />
  <path
     style="fill:none;fill-rule:evenodd;stroke:#000000;stroke-width:3.49999928;stroke-linecap:butt;stroke-linejoin:miter;stroke-miterlimit:4;stroke-dasharray:none;stroke-opacity:1;display:inline"
     id="path3193"
     d="M 53.873623,447.00854 C 53.231954,448.87956 56.460115,452.35632 58.479031,454.49233 C 60.254673,456.37095 62.547424,458.29431 64.581197,459.67341 C 68.000618,461.99213 70.178599,464.29375 73.676873,465.1999" />
  <path
     style="fill:none;fill-rule:evenodd;stroke:#000000;stroke-width:3.49999928;stroke-linecap:butt;stroke-linejoin:miter;stroke-miterlimit:4;stroke-dasharray:none;stroke-opacity:1;display:inline"
     id="path3195"
     d="M 47.644384,442.97882 C 46.542174,444.84983 45.871815,448.07518 46.953571,450.80801 C 47.744607,452.80639 49.565445,456.57525 51.558978,459.32801 C 54.222684,463.00616 57.041246,468.78403 61.230333,470.84152" />
  <path
     style="fill:none;fill-rule:evenodd;stroke:#000000;stroke-width:2.99999952;stroke-linecap:round;stroke-linejoin:miter;stroke-miterlimit:4;stroke-dasharray:none;stroke-opacity:1"
     id="path3209"
     d="M 110.68142,371.13367 C 113.20459,372.21205 115.06514,372.42456 117.82964,372.522 C 119.70074,372.58795 121.06067,372.79654 122.94238,372.55069 C 124.26438,372.37796 125.58778,372.28993 126.79415,371.81521 C 127.21275,371.65049 126.88417,371.55558 126.96282,371.32872" />
  <path
     style="fill:none;fill-rule:evenodd;stroke:#000000;stroke-width:2.99999952;stroke-linecap:round;stroke-linejoin:miter;stroke-miterlimit:4;stroke-dasharray:none;stroke-opacity:1;display:inline"
     id="path3211"
     d="M 112.06097,357.60916 C 115.08286,358.70901 117.33007,358.93705 120.67615,359.05745 C 122.94092,359.13895 124.58173,359.35891 126.86945,359.12853 C 128.4767,358.96668 130.08289,358.88957 131.55986,358.42462 C 132.07235,358.26329 131.67734,358.16561 131.77999,357.93928" />
  <path
     style="fill:none;fill-rule:evenodd;stroke:#000000;stroke-width:2.99999952;stroke-linecap:round;stroke-linejoin:miter;stroke-miterlimit:4;stroke-dasharray:none;stroke-opacity:1;display:inline"
     id="path3213"
     d="M 105.59741,335.14587 C 111.1804,337.4547 115.25565,337.74588 121.29525,337.6497 C 125.38311,337.58461 126.92261,337.57828 131.07926,337.23911 C 134.21456,336.98328 136.19066,336.81514 138.83412,335.97869 C 139.79463,335.67477 140.49051,335.07898 141.90645,334.39691" />
  <path
     style="fill:none;fill-rule:evenodd;stroke:#000000;stroke-width:2.99999952;stroke-linecap:round;stroke-linejoin:miter;stroke-miterlimit:4;stroke-dasharray:none;stroke-opacity:1;display:inline"
     id="path3215"
     d="M 96.008147,309.13253 C 104.35449,314.50916 110.35998,315.36719 119.22734,315.47801 C 125.22916,315.55306 127.49059,315.62131 133.57639,315.09715 C 138.16682,314.70178 141.05963,314.43742 144.89129,312.73865 C 146.28354,312.12141 147.26882,310.84802 149.30662,309.42331" />
  <path
     style="fill:none;fill-rule:evenodd;stroke:#000000;stroke-width:2.99999928;stroke-linecap:round;stroke-linejoin:miter;stroke-miterlimit:4;stroke-dasharray:none;stroke-opacity:1;display:inline"
     id="path3217"
     d="M 89.814105,282.32179 C 100.13901,288.28018 107.49257,289.13314 118.32139,289.07382 C 125.65082,289.03371 128.41347,289.06419 135.83039,288.3388 C 141.42487,287.79163 144.95003,287.42948 149.58541,285.41142 C 151.26968,284.67814 152.44063,283.20493 154.89279,281.53705" />
  <path
     style="fill:none;fill-rule:evenodd;stroke:#000000;stroke-width:2.99999928;stroke-linecap:round;stroke-linejoin:miter;stroke-miterlimit:4;stroke-dasharray:none;stroke-opacity:1;display:inline"
     id="path3219"
     d="M 88.787064,259.88019 C 99.111973,265.83859 106.46552,266.69155 117.29435,266.63222 C 124.62377,266.59212 127.38644,266.62259 134.80335,265.8972 C 140.39783,265.35004 143.92298,264.98789 148.55836,262.96981 C 150.24264,262.23654 151.41359,260.76334 153.86574,259.09545" />
  <path
     style="fill:none;fill-rule:evenodd;stroke:#000000;stroke-width:2.99999928;stroke-linecap:round;stroke-linejoin:miter;stroke-miterlimit:4;stroke-dasharray:none;stroke-opacity:1;display:inline"
     id="path3221"
     d="M 93.466017,240.32648 C 102.34881,245.25604 108.6915,245.93357 118.03805,245.8321 C 124.36421,245.76347 126.74848,245.7757 133.15343,245.13399 C 137.9846,244.64996 141.02886,244.33044 145.03929,242.62185 C 146.49648,242.00103 147.51417,240.76436 149.6386,239.35887" />
  <path
     style="fill:none;fill-rule:evenodd;stroke:#000000;stroke-width:2.99999928;stroke-linecap:round;stroke-linejoin:miter;stroke-miterlimit:4;stroke-dasharray:none;stroke-opacity:1;display:inline"
     id="path3223"
     d="M 101.56374,222.12419 C 108.07139,225.20136 112.95617,225.58849 120.24643,225.45853 C 125.18079,225.37061 127.03732,225.36173 132.08107,224.90829 C 135.88549,224.56628 138.28399,224.34151 141.55153,223.22541 C 142.73879,222.81987 143.63522,222.0252 145.40803,221.11531" />
  <path
     style="fill:none;fill-rule:evenodd;stroke:#000000;stroke-width:2.79999948;stroke-linecap:butt;stroke-linejoin:miter;stroke-miterlimit:4;stroke-dasharray:none;stroke-opacity:1"
     id="path3225"
     d="M 100.15796,194.86249 C 93.285911,199.44576 87.539831,212.22296 83.640073,221.68186 C 79.328107,232.14056 76.121701,246.16188 75.214123,253.76521 C 73.997121,263.96076 76.495029,277.88493 76.944276,283.53934 C 77.754111,293.73235 82.307425,304.27026 85.252457,314.46276 C 87.969676,323.86685 90.518312,334.79239 92.243141,340.69668 C 94.870171,349.68932 102.87957,373.27553 108.4477,383.22365" />
  <path
     style="fill:#00ff00;fill-opacity:1;fill-rule:evenodd;stroke:#000000;stroke-width:3.49999881;stroke-linecap:butt;stroke-linejoin:miter;stroke-miterlimit:4;stroke-dasharray:none;stroke-opacity:1;display:inline"
     id="path3189"
     d="M 101.1083,360.23077 C 101.00076,370.60266 98.169849,375.97317 95.740262,381.48624 C 92.555648,388.71257 86.608743,393.8733 82.96632,397.58701 C 80.283532,400.32231 76.460679,404.52995 74.157503,405.64838 C 70.371657,407.4868 68.93024,406.12762 68.201908,404.47099 C 67.470108,402.80647 66.716591,400.72988 68.460177,395.60602 C 69.898249,391.37995 71.82679,386.52546 73.487005,382.21279 C 74.7329,378.9763 77.625054,371.96268 79.592116,367.42691 C 81.378545,363.30773 83.869529,359.37543 88.619246,351.86982 C 90.994835,348.11589 93.458223,346.06426 94.92419,345.36635 C 96.859778,344.44487 98.706041,345.37721 99.71436,347.24193 C 101.27647,350.13086 101.15525,355.70262 101.1083,360.23077 z" />
  <path
     style="fill:#00ff00;fill-opacity:1;fill-rule:evenodd;stroke:#000000;stroke-width:3.49999928;stroke-linecap:butt;stroke-linejoin:miter;stroke-miterlimit:4;stroke-dasharray:none;stroke-opacity:1;display:inline"
     id="path3515"
     d="M 58.735043,179.37652 C 65.372682,185.76866 66.657024,187.65747 72.347249,194.1794 C 77.261766,200.25808 80.154907,202.90041 84.041318,208.85957 C 86.112007,212.03462 89.135075,216.00237 88.482064,219.06796 C 87.408683,224.10701 84.714243,225.50934 82.276212,225.97476 C 79.826561,226.44241 76.901619,226.833 72.648138,223.43991 C 69.139936,220.64134 65.337606,217.09213 61.915976,214.00326 C 59.348172,211.68518 53.941758,206.42938 50.524909,202.91347 C 47.421868,199.72047 45.105862,195.7223 40.68128,188.09681 C 38.468325,184.28292 37.323016,180.61472 37.754168,178.66698 C 38.323435,176.09529 41.771306,174.2713 44.670625,173.51947 C 49.162418,172.3547 55.491838,176.25327 58.735043,179.37652 z" />
  <path
     style="fill:none;fill-rule:evenodd;stroke:#000000;stroke-width:3.99999952;stroke-linecap:round;stroke-linejoin:miter;stroke-miterlimit:4;stroke-dasharray:none;stroke-opacity:1;display:inline"
     id="path3176"
     d="M 133.17345,179.08057 L 136.04779,183.67701" />
  <path
     style="fill:none;fill-rule:evenodd;stroke:#000000;stroke-width:3.99999952;stroke-linecap:round;stroke-linejoin:miter;stroke-miterlimit:4;stroke-dasharray:none;stroke-opacity:1;display:inline"
     id="path3178"
     d="M 142.65285,172.68087 L 146.26721,178.56471" />
  <path
     style="fill:#b3b3b3;fill-opacity:1;stroke:#000000;stroke-width:2.79999971;stroke-linecap:round;stroke-miterlimit:4;stroke-dasharray:none;stroke-opacity:1"
     id="path3230"
     d="M 164.23423,210.8498 C 159.64505,216.99026 152.1261,219.41188 147.4387,216.25911 C 142.7513,213.10633 142.66982,205.57264 147.2567,199.43062 C 151.84358,193.28861 159.36248,190.8633 164.05213,194.01305 C 168.74179,197.1628 168.82696,204.69531 164.24239,210.83887" />
  <path
     style="fill:#00ff00;fill-opacity:1;fill-rule:evenodd;stroke:#000000;stroke-width:3.49999928;stroke-linecap:butt;stroke-linejoin:miter;stroke-miterlimit:4;stroke-dasharray:none;stroke-opacity:1;display:inline"
     id="path2418"
     d="M 82.050564,112.91023 C 75.991907,112.52808 74.518594,112.19884 68.86171,111.98533 C 63.767275,111.79305 61.194131,111.89626 56.655819,111.24178 C 54.237813,110.89307 51.005395,110.63571 49.954265,109.21217 C 48.226476,106.87223 48.904997,105.23933 49.877264,104.06479 C 50.854172,102.88464 52.313493,102.38862 55.667004,101.07526 C 57.231157,100.46267 62.496179,99.206669 65.529522,98.969312 C 67.805928,98.791164 72.773781,98.249179 75.987602,98.483181 C 78.222387,98.6459 83.198642,99.895273 85.516717,100.84242 C 88.129274,101.90988 90.84215,103.45968 90.512705,104.5354 C 90.015958,106.15742 77.897348,104.26026 75.065236,105.58931 C 78.680692,108.06971 90.059249,107.90973 90.202252,110.27659 C 90.37213,113.08825 85.12802,113.10435 82.050564,112.91023 z" />
  <path
     style="fill:#00ff00;fill-opacity:1;fill-rule:evenodd;stroke:#000000;stroke-width:3.49999928;stroke-linecap:butt;stroke-linejoin:miter;stroke-miterlimit:4;stroke-dasharray:none;stroke-opacity:1;display:inline"
     id="path2420"
     d="M 113.1358,94.941371 C 119.0114,93.4147 120.39528,92.811445 125.90848,91.526708 C 130.87352,90.3697 133.41938,89.98199 137.75058,88.476903 C 140.05824,87.674984 143.18283,86.807976 143.94425,85.210614 C 145.19582,82.584945 144.21933,81.110767 143.04155,80.142416 C 141.85816,79.169445 140.33116,78.959817 136.78916,78.30775 C 135.1371,78.003608 129.72932,77.771148 126.70616,78.114623 C 124.43739,78.37237 119.45707,78.784433 116.34631,79.624976 C 114.18318,80.209468 109.53508,82.381836 107.43926,83.752281 C 105.0772,85.296823 102.70832,87.333968 103.23621,88.327477 C 104.03218,89.825512 115.56934,85.659717 118.60242,86.426283 C 115.52428,89.548609 104.32271,91.554113 104.63215,93.905013 C 104.99974,96.697707 110.15133,95.71684 113.1358,94.941371 z" />
</svg>
